<svg xmlns="http://www.w3.org/2000/svg" xmlns:xlink="http://www.w3.org/1999/xlink" id="レイヤー_1" x="0" y="0" version="1.1" viewBox="0 0 128 128" style="enable-background:new 0 0 128 128" xml:space="preserve"><style type="text/css">.st0{fill:url(#SVGID_1_)}.st1{fill:#fff;stroke:#fff;stroke-width:2;stroke-miterlimit:10}</style><linearGradient id="SVGID_1_" x1="31.416" x2="97.215" y1="121.302" y2="7.335" gradientUnits="userSpaceOnUse"><stop offset="0" style="stop-color:#ff1515"/><stop offset=".127" style="stop-color:#f61414"/><stop offset=".338" style="stop-color:#dc1011"/><stop offset=".607" style="stop-color:#b30a0b"/><stop offset=".92" style="stop-color:#7a0204"/><stop offset="1" style="stop-color:#6a0002"/></linearGradient><path d="M37.8,77.2c-2.2-1-4.2-1.8-6.1-2.8c-7.8-4.1-12.2-10.5-12.5-19.3c-0.4-8.9,3.5-15.9,11.1-20.4	c15.1-9,30.2-17.9,45.4-26.7c7.7-4.5,15.7-4.4,23.2,0.3c7.5,4.6,11.1,11.6,10.7,20.4c-0.4,8-4.3,14.2-11.2,18.4	c-2.4,1.5-4.8,2.9-7.4,4.4c2.1,1,4.1,1.8,6,2.8c7.9,4.1,12.3,10.5,12.7,19.4c0.4,8.9-3.5,15.9-11.1,20.4	c-15.1,9-30.3,17.9-45.5,26.7c-7.8,4.5-15.8,4.3-23.4-0.5c-7.4-4.7-11-11.7-10.4-20.5c0.5-7.9,4.3-13.9,11.1-18.1	C32.6,80.2,35.1,78.8,37.8,77.2z" class="st0"/><path d="M64,44c-11.6,0-21,9.4-21,21s9.4,21,21,21s21-9.4,21-21S75.6,44,64,44z M47.2,65c0-9.3,7.5-16.8,16.8-16.8	c3.9,0,7.5,1.3,10.3,3.5L50.7,75.3C48.5,72.5,47.2,68.9,47.2,65z M64,81.8c-3.9,0-7.5-1.3-10.3-3.5l23.5-23.5	c2.2,2.8,3.5,6.4,3.5,10.3C80.8,74.3,73.3,81.8,64,81.8z" class="st1"/></svg>